<?xml version="1.0" encoding="utf-8"?>
<!-- Generator: Adobe Illustrator 21.1.0, SVG Export Plug-In . SVG Version: 6.00 Build 0)  -->
<svg version="1.1" id="Layer_1" xmlns="http://www.w3.org/2000/svg" xmlns:xlink="http://www.w3.org/1999/xlink" x="0px" y="0px"
	 viewBox="0 0 756.3 130.1" style="enable-background:new 0 0 756.3 130.1;" xml:space="preserve">
<path d="M37.5,26.1C19.3,26.1,0,38.4,0,66.5c0,27.9,19.3,40.3,37.5,40.3c18.4,0,37.7-12.4,37.7-40.3C75.2,38.4,56,26.1,37.5,26.1z
	 M37.5,94.1c-11.2,0-21.7-8.5-21.7-27.6c0-19.6,10.5-27.8,21.7-27.8c11.4,0,21.9,8.5,21.9,27.8C59.4,85.3,48.9,94.1,37.5,94.1z
	 M112.6,0.6h6.8v11.9h-5.8c-7.6,0-9.2,1.6-9.2,9.6v5.3h15v11.4h-15v66h-15v-66H78.7V27.5h10.8v-5.2C89.5,5.2,94.5,0.6,112.6,0.6z
	 M157.8,0.6h6.8v11.9h-5.8c-7.6,0-9.2,1.6-9.2,9.6v5.3h15v11.4h-15v66h-15v-66h-10.8V27.5h10.8v-5.2C134.6,5.2,139.7,0.6,157.8,0.6z
	 M186.9,17.1h-15V0.6h15V17.1z M186.9,104.9h-15V27.5h15V104.9z M252.6,53.7c-1.6-8.8-9.5-14.8-19.3-14.8
	c-10.8,0-20.7,8.5-20.7,27.3c0,19.1,10.1,27.8,20.7,27.8c9.5,0,17.8-5.6,19.9-14.8h15.1c-3,16.3-18.1,27.6-35.2,27.6
	c-22.3,0-36.4-17.1-36.4-40.4c0-23,14.5-40.3,37.4-40.3c17.7,0,31.2,12.5,33.5,27.6H252.6z M312.9,26.1c-22,0-38.1,16-38.1,40
	c0,22.4,13.5,40.7,38.5,40.7c19.7,0,31.2-11.8,34.8-24.6H333c-3.2,7.3-9.5,11.8-20.3,11.8c-12.1,0-21.1-8.9-22.6-23.2h59
	C350.7,45.6,336.7,26.1,312.9,26.1z M290.4,59c2-14.7,10.6-20.7,22.3-20.7c12.4,0,20.4,9.2,20.9,20.7H290.4z M360.2,58.9h46.3v13.8
	h-46.3V58.9z M457.2,26c-11.4,0-19.4,4.9-24.2,12.8V27.4h-15v102.7h15V93.9c4.8,7.9,12.8,12.8,24.2,12.8c18,0,33.4-15.1,33.4-40.5
	C490.6,41.1,475.2,26,457.2,26z M453.7,94.2c-11.5,0-21.3-8.8-21.3-27.9c0-19.2,9.8-27.8,21.3-27.8c12.4,0,20.9,10.4,20.9,27.8
	C474.6,83.7,466.1,94.2,453.7,94.2z M564.2,76.9c0-3.3,0.3-16.7,0.3-18.6c0.3-23.2-11.2-32.8-31.2-32.8c-17.7,0-31.2,9.9-32.5,26.4
	h15.1c0.6-9.5,6.5-14.8,16.8-14.8c9.5,0,16.7,4.6,16.7,18.3v1.6c-30.1,3.2-52.3,8.2-52.3,27.1c0,14.1,12,22.8,27.6,22.8
	c12.5,0,21.3-4.3,25.9-12.1c0.3,4.9,0.7,7.2,1.3,10.2h14.4C564.9,98,564.2,88.5,564.2,76.9z M550.1,73.6c0,15.4-9.6,21.6-22,21.6
	c-9.1,0-14.7-4.5-14.7-11.5c0-10.1,12.7-13.4,36.7-15.7V73.6z M610.8,42.4c-11.5,0-17.6,5.6-17.6,21.9v40.6h-15V27.4H593v13.7
	c4-8.8,11.8-13.8,21.5-14c1.3,0,2.9,0,4.2,0.1v15.6C615.9,42.5,613.3,42.4,610.8,42.4z M649.7,7.5v19.9H665v11.4h-15.3V83
	c0,7.9,1.3,9.9,8.8,9.9h6.3v12h-10.9c-15.7,0-19.2-3.9-19.2-19.9V38.8h-11.8V27.4h11.8V7.5H649.7z M677.8,118.1h5.9
	c8.1,0,11.5-0.6,15.3-11.7l0.6-1.7l-27.9-77.3h16.6l18.7,57.7l18.3-57.7h15.6l-27.4,79.2c-6.3,18.3-10.9,23.5-28.4,23.5h-7.2V118.1z
	 M746.6,19.5c-5.4,0-9.7-4.4-9.7-9.7c0-5.4,4.4-9.7,9.7-9.7s9.7,4.4,9.7,9.7C756.3,15.1,752,19.5,746.6,19.5z M746.6,1.4
	c-4.6,0-8.3,3.7-8.3,8.3c0,4.6,3.7,8.3,8.3,8.3c4.6,0,8.3-3.7,8.3-8.3C754.9,5.2,751.2,1.4,746.6,1.4z M751.5,15.2h-2.3l-2.3-4.6
	c-0.2,0-0.4,0-0.6,0h-1.7v4.6h-2V4h3.6c2.5,0,4.9,0.4,4.9,3.3c0,1.5-0.7,2.5-2.1,3L751.5,15.2z M744.6,8.9h1.8
	c1.7,0,2.6-0.3,2.6-1.6c0-1.4-0.9-1.6-2.6-1.6h-1.8V8.9z"/>
</svg>
