<?xml version="1.0" encoding="utf-8"?>
<!-- Generator: Adobe Illustrator 21.1.0, SVG Export Plug-In . SVG Version: 6.00 Build 0)  -->
<svg version="1.1" id="Layer_1" xmlns="http://www.w3.org/2000/svg" xmlns:xlink="http://www.w3.org/1999/xlink" x="0px" y="0px"
	 viewBox="0 0 830 1239" style="enable-background:new 0 0 830 1239;" xml:space="preserve">
<style type="text/css">
	.st0{fill:#CCDAFF;}
</style>
<title>Asset 1</title>
<path class="st0" d="M0,0v1239h830V0H0z M55.5,43C62.4,43,68,48.6,68,55.5S62.4,68,55.5,68S43,62.4,43,55.5S48.6,43,55.5,43z
	 M43,185.2V149c0-6.9,5.6-12.5,12.5-12.5S68,142.1,68,149v36.2h-0.1c0,0.4,0.1,0.8,0.1,1.2c0,6.9-5.6,12.5-12.5,12.5
	S43,193.4,43,186.5C43,186.1,43,185.7,43,185.2L43,185.2z M55.5,1196c-6.9,0-12.5-5.6-12.5-12.5s5.6-12.5,12.5-12.5
	s12.5,5.6,12.5,12.5S62.4,1196,55.5,1196z M68,1053.8v36.2c0,6.9-5.6,12.5-12.5,12.5S43,1096.9,43,1090v-36.2h0.1
	c0-0.4-0.1-0.8-0.1-1.2c0-6.9,5.6-12.5,12.5-12.5s12.5,5.6,12.5,12.5C68,1052.9,68,1053.3,68,1053.8L68,1053.8z M58,798
	c-8.3,0-15-6.7-15-15s6.7-15,15-15c8.3,0,15,6.7,15,15S66.3,798,58,798z M58,471c-8.3,0-15-6.7-15-15c0-8.3,6.7-15,15-15
	c8.3,0,15,6.7,15,15C73,464.3,66.3,471,58,471z"/>
</svg>
